<mxfile host="app.diagrams.net" modified="2024-04-10T18:03:34.514Z" agent="Mozilla/5.0 (Windows NT 10.0; Win64; x64) AppleWebKit/537.36 (KHTML, like Gecko) Chrome/123.0.0.0 Safari/537.36" etag="x-mhKu7WdKV7c1A1kJxO" version="24.2.3" type="github">
  <diagram name="페이지-1" id="ss_N8OAhiIwMKr2Yj-Id">
    <mxGraphModel dx="1434" dy="738" grid="1" gridSize="10" guides="1" tooltips="1" connect="1" arrows="1" fold="1" page="1" pageScale="1" pageWidth="827" pageHeight="1169" math="0" shadow="0">
      <root>
        <mxCell id="0" />
        <mxCell id="1" parent="0" />
        <mxCell id="BHWwYKfjyVqADt21BOcX-4" style="edgeStyle=orthogonalEdgeStyle;rounded=0;orthogonalLoop=1;jettySize=auto;html=1;exitX=0.5;exitY=1;exitDx=0;exitDy=0;entryX=0.5;entryY=0;entryDx=0;entryDy=0;" edge="1" parent="1" source="BHWwYKfjyVqADt21BOcX-1" target="BHWwYKfjyVqADt21BOcX-2">
          <mxGeometry relative="1" as="geometry" />
        </mxCell>
        <mxCell id="BHWwYKfjyVqADt21BOcX-1" value="시작" style="rounded=0;whiteSpace=wrap;html=1;" vertex="1" parent="1">
          <mxGeometry x="40" y="50" width="120" height="60" as="geometry" />
        </mxCell>
        <mxCell id="BHWwYKfjyVqADt21BOcX-2" value="사용자 메인폼 입력&amp;nbsp;" style="rounded=1;whiteSpace=wrap;html=1;" vertex="1" parent="1">
          <mxGeometry x="40" y="170" width="120" height="60" as="geometry" />
        </mxCell>
        <mxCell id="BHWwYKfjyVqADt21BOcX-5" value="그래프 출력" style="rounded=1;whiteSpace=wrap;html=1;" vertex="1" parent="1">
          <mxGeometry x="40" y="290" width="120" height="60" as="geometry" />
        </mxCell>
      </root>
    </mxGraphModel>
  </diagram>
</mxfile>
